<svg width="735" height="769" viewBox="0 0 735 769" fill="none" xmlns="http://www.w3.org/2000/svg">
<ellipse cx="372" cy="362.5" rx="301" ry="292.5" fill="#FFFCFC"/>
<path d="M362.66 26.0186C364.533 26.0219 364.533 26.0219 366.445 26.0252C384.263 26.0746 401.736 26.3914 419.347 29.3311C420.581 29.5245 421.814 29.7178 423.085 29.9171C482.458 39.2913 538.985 63.9145 585.347 102.331C586.172 103.011 586.172 103.011 587.012 103.705C606.93 120.191 606.93 120.191 614.679 129.413C616.437 131.434 618.299 133.281 620.222 135.144C625.005 139.89 629.213 145.019 633.347 150.331C633.898 151.038 634.45 151.745 635.017 152.474C653.585 176.438 668.674 201.79 680.294 229.804C681.183 231.937 682.095 234.056 683.023 236.171C694.791 263.861 701.162 294.504 704.347 324.331C704.45 325.258 704.553 326.185 704.659 327.14C714.251 416.482 688.23 504.939 632.347 575.331C631.866 575.944 631.384 576.557 630.888 577.189C623.057 587.141 614.712 596.443 605.976 605.606C603.198 608.549 600.523 611.582 597.863 614.632C594.939 617.91 594.939 617.91 593.347 619.331C592.687 619.331 592.027 619.331 591.347 619.331C591.09 619.925 590.832 620.52 590.566 621.132C589.24 623.524 587.944 624.779 585.847 626.519C582.685 629.191 579.591 631.913 576.535 634.706C571.286 639.437 565.854 643.905 560.347 648.331C559.144 649.304 557.941 650.276 556.738 651.249C533.697 669.833 509.259 686.37 484.347 702.331C483.514 702.866 482.68 703.401 481.821 703.952C419.345 743.789 419.345 743.789 394.347 742.331C389.979 740.849 387.784 739.189 385.347 735.331C384.719 732.769 384.719 732.769 384.355 729.901C384.133 728.337 384.133 728.337 383.906 726.741C383.618 724.56 383.337 722.378 383.062 720.194C382.133 713.753 381.367 709.664 376.347 705.331C371.904 703.519 367.853 702.982 363.082 702.69C361.637 702.593 360.192 702.494 358.748 702.395C357.991 702.344 357.234 702.294 356.454 702.242C304.567 698.692 254.389 684.665 208.347 660.331C207.649 659.966 206.95 659.601 206.23 659.224C185.8 648.477 167.429 634.942 149.687 620.241C148.179 619.01 146.63 617.825 145.039 616.702C144.481 616.25 143.923 615.797 143.347 615.331C143.347 614.671 143.347 614.011 143.347 613.331C142.491 612.948 142.491 612.948 141.617 612.558C135.041 609.004 129.856 602.967 125.086 597.319C123.301 595.278 121.42 593.404 119.472 591.519C114.682 586.783 110.544 581.591 106.347 576.331C105.386 575.148 104.424 573.966 103.461 572.784C75.708 538.618 37.3474 484.84 37.3474 439.331C36.3574 439.001 35.3674 438.671 34.3474 438.331C35.0074 438.331 35.6674 438.331 36.3474 438.331C36.0935 437.189 35.8395 436.047 35.5779 434.87C19.5743 360.462 28.8044 276.772 64.3587 209.228C65.3802 207.268 66.3673 205.294 67.3513 203.315C74.5423 189.058 83.3345 175.598 93.1768 163.025C94.5386 161.223 94.5386 161.223 95.3474 158.331C96.9892 156.64 98.6609 154.978 100.347 153.331C102.308 151.139 104.2 148.89 106.097 146.644C107.172 145.384 108.248 144.125 109.324 142.866C109.845 142.257 110.366 141.647 110.903 141.019C122.884 127.017 135.807 113.678 150.347 102.331C152.204 100.751 154.058 99.1675 155.91 97.5811C202.336 58.9424 258.989 36.8537 318.347 28.3311C320.106 28.0608 320.106 28.0608 321.9 27.785C335.435 25.8481 349.013 25.9765 362.66 26.0186ZM191.347 167.331C190.524 168.154 189.7 168.976 188.851 169.823C175.675 183.02 164.494 198.07 155.347 214.331C154.933 215.066 154.518 215.801 154.091 216.558C140.693 240.581 131.404 266.511 125.347 293.331C124.687 293.331 124.027 293.331 123.347 293.331C108.883 293.384 108.883 293.384 96.9724 300.581C91.8173 306.629 91.9647 314.59 91.7341 322.124C91.6968 323.17 91.6595 324.216 91.6211 325.293C91.2593 336.302 91.1613 347.312 91.1621 358.327C91.1599 361.687 91.1415 365.047 91.1228 368.407C91.1199 370.586 91.1179 372.765 91.117 374.944C91.1098 375.928 91.1026 376.911 91.0952 377.925C91.1261 387.382 91.3272 397.271 98.3474 404.331C103.277 407.938 107.417 408.458 113.426 408.429C115.166 408.424 115.166 408.424 116.941 408.419C118.148 408.411 119.354 408.402 120.597 408.394C121.819 408.389 123.041 408.385 124.301 408.38C127.316 408.368 130.332 408.352 133.347 408.331C133.275 407.273 133.203 406.214 133.129 405.124C130.469 363.04 132.484 319.815 153.369 282.103C154.329 280.364 155.251 278.603 156.172 276.843C160.462 268.9 165.518 261.894 171.131 254.839C171.677 254.151 172.223 253.462 172.785 252.753C173.279 252.14 173.772 251.528 174.281 250.897C175.535 249.371 175.535 249.371 175.347 247.331C175.94 247.077 176.533 246.823 177.144 246.562C179.591 245.195 180.841 243.814 182.597 241.644C208.16 211.605 249.3 195.11 286.482 185.853C288.418 185.375 288.418 185.375 290.347 184.331C294.251 183.656 298.183 183.173 302.109 182.645C304.413 182.322 306.709 181.966 309.008 181.605C323.85 179.339 338.714 178.419 353.691 177.634C357.519 177.434 361.343 177.21 365.168 176.952C365.971 176.899 366.774 176.846 367.602 176.791C369.599 176.656 371.596 176.519 373.594 176.382C376.347 176.331 376.347 176.331 378.347 177.331C380.268 177.508 382.194 177.63 384.121 177.726C445.114 181.075 502.941 196.568 548.347 239.331C549.059 239.978 549.771 240.625 550.504 241.292C583.927 272.899 599.826 320.299 601.347 365.331C601.688 379.353 601.102 393.332 600.347 407.331C604.886 409.147 604.886 409.147 609.347 408.331C610.482 408.496 611.616 408.661 612.785 408.831C620.114 409.846 628.113 409.636 634.347 405.331C640.007 399.543 641.509 394.289 641.962 386.342C642.018 385.363 642.018 385.363 642.076 384.364C642.436 377.633 642.509 370.903 642.515 364.163C642.519 362.881 642.522 361.599 642.526 360.278C642.531 357.593 642.533 354.909 642.533 352.224C642.533 348.819 642.546 345.414 642.563 342.009C642.577 338.706 642.577 335.403 642.578 332.101C642.585 330.897 642.592 329.694 642.6 328.454C642.577 319.928 642.061 311.473 639.347 303.331C638.687 303.331 638.027 303.331 637.347 303.331C637.316 302.465 637.316 302.465 637.285 301.581C635.801 298.02 632.751 296.771 629.347 295.331C625.896 294.482 622.435 294.013 618.91 293.581C617.988 293.456 617.065 293.331 616.115 293.202C613.861 292.899 611.605 292.609 609.347 292.331C609.044 291.061 608.742 289.792 608.429 288.483C605.873 277.913 603.133 267.539 599.347 257.331C599.071 256.584 598.794 255.837 598.509 255.068C585.522 220.497 566.491 190.393 540.347 164.331C539.071 163.02 539.071 163.02 537.769 161.683C532.272 156.073 526.727 150.932 520.347 146.331C519.478 145.688 519.478 145.688 518.591 145.031C507.977 137.183 497.07 130.396 485.347 124.331C484.684 123.981 484.02 123.631 483.336 123.27C450.2 105.953 410.53 98.1924 373.347 97.3311C372.152 97.3004 372.152 97.3004 370.933 97.2691C303.45 95.7477 238.727 118.426 191.347 167.331ZM293.347 219.331C292.473 219.526 291.598 219.72 290.697 219.921C265.515 225.641 241.804 236.572 221.347 252.331C220.33 253.102 219.313 253.873 218.265 254.667C214.714 257.39 214.714 257.39 211.347 260.331C211.347 260.991 211.347 261.651 211.347 262.331C210.773 262.573 210.198 262.816 209.605 263.065C190.556 273.743 177.976 304.698 172.097 324.456C171.491 326.742 170.907 329.034 170.347 331.331C170.072 332.463 169.796 333.595 169.511 334.761C159.786 378.765 165.369 428.692 189.136 467.44C212.924 504.569 250.335 524.573 292.347 534.331C305.894 537.284 319.531 539.234 333.347 540.331C334.389 540.418 334.389 540.418 335.451 540.506C395.905 545.308 471.047 545.231 519.5 504.599C551.543 476.059 565.459 434.159 568.347 391.331C570.08 345.968 561.134 303.613 529.972 269.206C490.972 227.286 435.62 214.582 380.347 212.331C350.986 211.421 322.076 212.82 293.347 219.331ZM166.347 500.331C164.164 502.857 162.183 505.551 160.16 508.206C159.568 508.982 158.976 509.759 158.366 510.559C147.404 524.942 147.404 524.942 145.347 542.331C147.135 549.331 152.744 554.336 157.594 559.401C159.476 561.369 161.248 563.387 162.972 565.495C164.873 567.764 166.668 569.675 168.91 571.581C169.598 572.166 170.287 572.752 170.996 573.355C171.772 574.007 172.548 574.659 173.347 575.331C174.247 576.107 175.147 576.883 176.074 577.683C191.667 590.972 208.879 601.553 227.347 610.331C228.018 610.656 228.689 610.98 229.38 611.315C302.923 646.712 396.556 648.488 473.392 622.795C497.709 614.266 521.368 603.398 542.347 588.331C543.415 587.569 544.482 586.807 545.582 586.023C551.363 581.789 556.787 577.302 562.051 572.44C564.107 570.552 566.21 568.751 568.347 566.956C576.312 559.993 587.19 550.345 588.621 539.202C589.169 526.063 580.271 516.842 572.639 507C571.188 505.126 569.762 503.233 568.347 501.331C564.149 502.919 561.669 506.051 558.785 509.331C516.248 556.435 451.548 575.184 390.046 579.079C321.536 582.235 243.495 570.991 190.808 523.437C189.387 522.13 189.387 522.13 187.347 522.331C187.347 521.671 187.347 521.011 187.347 520.331C185.961 518.969 185.961 518.969 184.097 517.519C179.419 513.571 175.381 509.144 171.298 504.599C169.998 503.161 168.675 501.744 167.347 500.331C167.017 500.331 166.687 500.331 166.347 500.331Z" fill="#00C3C7"/>
<path d="M336.343 261.107C338.532 261.103 340.721 261.099 342.91 261.094C347.471 261.086 352.031 261.087 356.592 261.092C361.205 261.097 365.817 261.09 370.429 261.071C461.58 260.714 461.58 260.714 500.097 286.408C500.748 286.84 501.398 287.273 502.068 287.719C503.783 288.893 505.445 290.145 507.097 291.408C507.097 292.068 507.097 292.728 507.097 293.408C507.658 293.645 508.219 293.882 508.797 294.126C524.107 302.652 534.387 323.963 539.289 340.193C546.989 370.807 544.604 404.213 528.631 431.842C525.005 437.832 520.807 443.226 516.097 448.408C515.274 449.336 515.274 449.336 514.433 450.283C484.519 482.112 438.967 486.861 397.786 488.205C386.823 488.521 375.862 488.557 364.895 488.538C361.268 488.533 357.641 488.538 354.013 488.544C316.093 488.557 316.093 488.557 298.16 486.22C297.184 486.093 296.209 485.967 295.204 485.836C272.478 482.646 249.584 476.507 231.097 462.408C229.684 461.342 229.684 461.342 228.242 460.255C211.092 446.795 200.361 429.048 194.16 408.345C193.948 407.643 193.737 406.941 193.519 406.218C192.38 402.185 191.882 398.592 192.097 394.408C191.437 394.078 190.777 393.748 190.097 393.408C189.378 357.061 192.066 325.145 218.097 297.408C235.296 279.741 258.586 269.825 282.472 265.158C283.618 264.931 283.618 264.931 284.787 264.7C301.861 261.615 319.04 261.094 336.343 261.107ZM425.711 334.787C421.121 342.243 420.648 350.424 420.699 358.97C420.696 360.042 420.693 361.114 420.69 362.218C420.688 364.471 420.694 366.723 420.706 368.975C420.722 372.398 420.706 375.82 420.687 379.244C420.689 381.444 420.693 383.645 420.699 385.845C420.693 386.856 420.687 387.867 420.681 388.908C420.766 397.652 422.12 406.664 428.097 413.408C437.761 420.264 446.464 421.504 458.097 420.408C461.517 419.574 464.172 418.348 467.097 416.408C468.064 415.771 468.064 415.771 469.051 415.122C474.942 410.679 477.553 405.044 478.632 397.834C479.181 393.233 479.259 388.674 479.265 384.044C479.269 383.172 479.272 382.299 479.275 381.4C479.28 379.564 479.283 377.728 479.283 375.891C479.285 373.113 479.303 370.336 479.322 367.558C479.787 349.612 479.787 349.612 473.097 333.408C466.776 327.101 459.375 324.303 450.535 324.095C440.337 324.408 432.717 327.297 425.711 334.787ZM259.91 333.658C254.278 339.926 253.628 347.557 253.515 355.576C253.493 356.532 253.47 357.489 253.447 358.475C253.402 360.491 253.365 362.507 253.334 364.523C253.285 367.569 253.21 370.614 253.131 373.66C252.295 394.789 252.295 394.789 261.097 413.408C268.318 420.288 276.639 420.879 286.179 420.65C294.149 420.157 299.15 417.854 305.273 412.81C311.002 405.266 311.687 397.119 311.593 387.935C311.596 386.19 311.596 386.19 311.598 384.41C311.596 381.966 311.585 379.521 311.564 377.076C311.535 373.352 311.543 369.63 311.556 365.906C311.55 363.52 311.542 361.134 311.531 358.747C311.534 357.644 311.537 356.541 311.54 355.404C311.421 345.555 309.736 338.286 302.847 331.068C298.436 326.883 294.911 326.03 288.988 325.619C287.097 325.408 287.097 325.408 286.097 324.408C275.791 323.594 266.989 326.077 259.91 333.658Z" fill="#00C4C8"/>
<path d="M466 509L461 489L450.58 470.571L486.232 471.42L466 509Z" fill="#01C5C8"/>
</svg>
